<?xml version="1.0" encoding="UTF-8"?>
<!DOCTYPE svg PUBLIC "-//W3C//DTD SVG 1.1//EN" "http://www.w3.org/Graphics/SVG/1.1/DTD/svg11.dtd">
<svg xmlns="http://www.w3.org/2000/svg" version="1.1" width="512px" height="512px" style="shape-rendering:geometricPrecision; text-rendering:geometricPrecision; image-rendering:optimizeQuality; fill-rule:evenodd; clip-rule:evenodd" xmlns:xlink="http://www.w3.org/1999/xlink">
<g><path style="opacity:1" fill="#232224" d="M 233.5,-0.5 C 248.167,-0.5 262.833,-0.5 277.5,-0.5C 377.805,11.9821 449.305,63.9821 492,155.5C 502.297,180.687 508.797,206.687 511.5,233.5C 511.5,248.5 511.5,263.5 511.5,278.5C 499.611,373.475 451.278,442.975 366.5,487C 356.8,491.686 346.8,495.519 336.5,498.5C 329.148,500.241 323.648,497.908 320,491.5C 319.667,462.833 319.333,434.167 319,405.5C 317.926,391.255 312.426,379.089 302.5,369C 320.259,366.373 337.592,362.04 354.5,356C 382.979,343.849 402.146,323.016 412,293.5C 419.223,266.698 420.223,239.698 415,212.5C 409.938,197.868 402.438,184.701 392.5,173C 397.187,159.202 398.687,145.035 397,130.5C 395.275,122.034 393.108,113.701 390.5,105.5C 372.538,104.992 355.871,109.492 340.5,119C 333.529,123.805 326.195,127.972 318.5,131.5C 276.322,120.878 234.155,120.878 192,131.5C 179.38,123.772 166.214,116.939 152.5,111C 142.222,106.898 131.556,105.065 120.5,105.5C 117.829,113.684 115.662,122.018 114,130.5C 112.313,145.035 113.813,159.202 118.5,173C 96.7637,197.751 88.2637,226.585 93,259.5C 96.4962,315.984 125.663,350.818 180.5,364C 189.781,365.945 199.115,367.612 208.5,369C 199.23,378.628 193.897,390.128 192.5,403.5C 179.869,407.993 166.869,409.826 153.5,409C 141.519,406.259 131.686,400.093 124,390.5C 117.645,378.476 108.812,368.643 97.5,361C 89.4256,356.196 80.7589,354.529 71.5,356C 66.4929,358.733 66.1596,362.066 70.5,366C 82.6667,372.833 92.1667,382.333 99,394.5C 110.987,428.755 135.154,444.255 171.5,441C 178.237,440.615 184.904,439.782 191.5,438.5C 191.667,456.17 191.5,473.836 191,491.5C 187.238,497.596 181.738,499.93 174.5,498.5C 144.815,488.998 118.148,474.331 94.5,454.5C 94.0269,453.094 93.0269,452.427 91.5,452.5C 37.8781,406.817 7.21147,348.817 -0.5,278.5C -0.5,263.5 -0.5,248.5 -0.5,233.5C 11.9821,133.195 63.9821,61.6947 155.5,19C 180.687,8.70332 206.687,2.20332 233.5,-0.5 Z"/></g>
<g><path style="opacity:0.999" fill="#f1f1f1" d="M 336.5,498.5 C 317.341,505.207 297.674,509.54 277.5,511.5C 262.833,511.5 248.167,511.5 233.5,511.5C 213.326,509.54 193.659,505.207 174.5,498.5C 181.738,499.93 187.238,497.596 191,491.5C 191.5,473.836 191.667,456.17 191.5,438.5C 184.904,439.782 178.237,440.615 171.5,441C 135.154,444.255 110.987,428.755 99,394.5C 92.1667,382.333 82.6667,372.833 70.5,366C 66.1596,362.066 66.4929,358.733 71.5,356C 80.7589,354.529 89.4256,356.196 97.5,361C 108.812,368.643 117.645,378.476 124,390.5C 131.686,400.093 141.519,406.259 153.5,409C 166.869,409.826 179.869,407.993 192.5,403.5C 193.897,390.128 199.23,378.628 208.5,369C 199.115,367.612 189.781,365.945 180.5,364C 125.663,350.818 96.4962,315.984 93,259.5C 88.2637,226.585 96.7637,197.751 118.5,173C 113.813,159.202 112.313,145.035 114,130.5C 115.662,122.018 117.829,113.684 120.5,105.5C 131.556,105.065 142.222,106.898 152.5,111C 166.214,116.939 179.38,123.772 192,131.5C 234.155,120.878 276.322,120.878 318.5,131.5C 326.195,127.972 333.529,123.805 340.5,119C 355.871,109.492 372.538,104.992 390.5,105.5C 393.108,113.701 395.275,122.034 397,130.5C 398.687,145.035 397.187,159.202 392.5,173C 402.438,184.701 409.938,197.868 415,212.5C 420.223,239.698 419.223,266.698 412,293.5C 402.146,323.016 382.979,343.849 354.5,356C 337.592,362.04 320.259,366.373 302.5,369C 312.426,379.089 317.926,391.255 319,405.5C 319.333,434.167 319.667,462.833 320,491.5C 323.648,497.908 329.148,500.241 336.5,498.5 Z"/></g>
<g><path style="opacity:1" fill="#3d3c3e" d="M 90.5,362.5 C 94.509,362.014 96.3423,363.68 96,367.5C 93.9555,368.772 92.1222,368.439 90.5,366.5C 89.3744,365.192 89.3744,363.858 90.5,362.5 Z"/></g>
<g><path style="opacity:1" fill="#2d2c2e" d="M 101.5,371.5 C 106.329,372.129 107.996,374.629 106.5,379C 101.466,378.794 99.7995,376.294 101.5,371.5 Z"/></g>
<g><path style="opacity:1" fill="#29282a" d="M 111.5,384.5 C 116.604,385.291 118.604,388.291 117.5,393.5C 111.251,393.337 109.251,390.337 111.5,384.5 Z"/></g>
<g><path style="opacity:1" fill="#2c2b2c" d="M 122.5,399.5 C 128.806,398.707 131.639,401.374 131,407.5C 124.58,408.919 121.747,406.252 122.5,399.5 Z"/></g>
<g><path style="opacity:1" fill="#2b2a2c" d="M 140.5,410.5 C 143.32,410.248 145.986,410.748 148.5,412C 149.7,418.113 147.367,419.779 141.5,417C 139.316,415.102 138.983,412.936 140.5,410.5 Z"/></g>
<g><path style="opacity:1" fill="#2a292b" d="M 182.5,411.5 C 185.908,410.828 188.575,411.828 190.5,414.5C 188.216,418.252 184.882,419.419 180.5,418C 178.933,415.094 179.6,412.928 182.5,411.5 Z"/></g>
<g><path style="opacity:1" fill="#302f31" d="M 162.5,413.5 C 164.989,413.298 167.323,413.798 169.5,415C 170.554,416.388 170.72,417.888 170,419.5C 165.74,422.614 162.24,421.948 159.5,417.5C 160.524,416.148 161.524,414.815 162.5,413.5 Z"/></g>
<g><path style="opacity:0.792" fill="#959495" d="M 91.5,452.5 C 93.0269,452.427 94.0269,453.094 94.5,454.5C 92.9731,454.573 91.9731,453.906 91.5,452.5 Z"/></g>
</svg>
