<?xml version="1.0" encoding="UTF-8"?>
<!DOCTYPE svg PUBLIC "-//W3C//DTD SVG 1.1//EN" "http://www.w3.org/Graphics/SVG/1.1/DTD/svg11.dtd">
<svg xmlns="http://www.w3.org/2000/svg" version="1.1" width="512px" height="512px" style="shape-rendering:geometricPrecision; text-rendering:geometricPrecision; image-rendering:optimizeQuality; fill-rule:evenodd; clip-rule:evenodd" xmlns:xlink="http://www.w3.org/1999/xlink">
<g><path style="opacity:0.99" fill="#f1f1f1" d="M 233.5,-0.5 C 248.167,-0.5 262.833,-0.5 277.5,-0.5C 302.108,2.09223 326.108,7.7589 349.5,16.5C 349.5,39.8333 349.5,63.1667 349.5,86.5C 368.5,86.5 387.5,86.5 406.5,86.5C 406.5,79.1667 406.5,71.8333 406.5,64.5C 395.167,64.5 383.833,64.5 372.5,64.5C 372.171,51.9887 372.505,39.6554 373.5,27.5C 454.4,72.5918 500.4,141.259 511.5,233.5C 511.5,248.167 511.5,262.833 511.5,277.5C 503.31,351.557 470.31,411.89 412.5,458.5C 421.762,345.417 431.429,232.417 441.5,119.5C 318.001,118.5 194.334,118.167 70.5,118.5C 70.19,121.713 70.5233,124.713 71.5,127.5C 81.2731,237.792 90.6065,348.126 99.5,458.5C 56.1402,425.5 26.3069,382.834 10,330.5C 5.02892,312.978 1.52892,295.312 -0.5,277.5C -0.5,262.833 -0.5,248.167 -0.5,233.5C 7.92956,155.953 43.2629,93.9535 105.5,47.5C 105.5,60.5 105.5,73.5 105.5,86.5C 113.019,86.825 120.352,86.4916 127.5,85.5C 127.5,78.1667 127.5,70.8333 127.5,63.5C 135.167,63.5 142.833,63.5 150.5,63.5C 150.5,70.8333 150.5,78.1667 150.5,85.5C 157.833,85.5 165.167,85.5 172.5,85.5C 172.5,62.5 172.5,39.5 172.5,16.5C 169.615,16.8064 166.948,16.4731 164.5,15.5C 186.956,7.34539 209.956,2.01206 233.5,-0.5 Z"/></g>
<g><path style="opacity:0.988" fill="#030303" d="M 127.5,32.5 C 127.5,35.1667 127.5,37.8333 127.5,40.5C 135.167,40.5 142.833,40.5 150.5,40.5C 150.5,34.1667 150.5,27.8333 150.5,21.5C 150.5,19.5 150.5,17.5 150.5,15.5C 155.167,15.5 159.833,15.5 164.5,15.5C 166.948,16.4731 169.615,16.8064 172.5,16.5C 172.5,39.5 172.5,62.5 172.5,85.5C 165.167,85.5 157.833,85.5 150.5,85.5C 150.5,78.1667 150.5,70.8333 150.5,63.5C 142.833,63.5 135.167,63.5 127.5,63.5C 127.5,70.8333 127.5,78.1667 127.5,85.5C 120.5,85.5 113.5,85.5 106.5,85.5C 106.829,72.6557 106.495,59.989 105.5,47.5C 105.5,36.8333 105.5,26.1667 105.5,15.5C 112.833,15.5 120.167,15.5 127.5,15.5C 127.5,21.1667 127.5,26.8333 127.5,32.5 Z"/></g>
<g><path style="opacity:1" fill="#020202" d="M 182.5,16.5 C 204.833,16.5 227.167,16.5 249.5,16.5C 249.5,24.5 249.5,32.5 249.5,40.5C 242.167,40.5 234.833,40.5 227.5,40.5C 227.5,55.8333 227.5,71.1667 227.5,86.5C 219.833,86.5 212.167,86.5 204.5,86.5C 204.5,71.1667 204.5,55.8333 204.5,40.5C 197.167,40.5 189.833,40.5 182.5,40.5C 182.5,32.5 182.5,24.5 182.5,16.5 Z"/></g>
<g><path style="opacity:0.993" fill="#000000" d="M 349.5,16.5 C 357.5,16.5 365.5,16.5 373.5,16.5C 373.5,20.1667 373.5,23.8333 373.5,27.5C 372.505,39.6554 372.171,51.9887 372.5,64.5C 383.833,64.5 395.167,64.5 406.5,64.5C 406.5,71.8333 406.5,79.1667 406.5,86.5C 387.5,86.5 368.5,86.5 349.5,86.5C 349.5,63.1667 349.5,39.8333 349.5,16.5 Z"/></g>
<g><path style="opacity:1" fill="#414141" d="M 282.5,17.5 C 274.833,17.5 267.167,17.5 259.5,17.5C 259.5,40.5 259.5,63.5 259.5,86.5C 258.502,63.3393 258.169,40.006 258.5,16.5C 266.684,16.1743 274.684,16.5076 282.5,17.5 Z"/></g>
<g><path style="opacity:1" fill="#010101" d="M 259.5,86.5 C 259.5,63.5 259.5,40.5 259.5,17.5C 267.167,17.5 274.833,17.5 282.5,17.5C 287.443,25.6169 292.61,33.6169 298,41.5C 303.5,33.3333 309,25.1667 314.5,17C 322.159,16.5003 329.826,16.3336 337.5,16.5C 337.5,39.8333 337.5,63.1667 337.5,86.5C 329.833,86.5 322.167,86.5 314.5,86.5C 314.667,75.1618 314.5,63.8284 314,52.5C 308.667,60.5 303.333,68.5 298,76.5C 292.667,68.5 287.333,60.5 282,52.5C 281.5,63.8284 281.333,75.1618 281.5,86.5C 274.167,86.5 266.833,86.5 259.5,86.5 Z"/></g>
<g><path style="opacity:0.943" fill="#f1f2f1" d="M 150.5,21.5 C 150.5,27.8333 150.5,34.1667 150.5,40.5C 142.833,40.5 135.167,40.5 127.5,40.5C 127.5,37.8333 127.5,35.1667 127.5,32.5C 135.019,28.5744 142.685,24.9077 150.5,21.5 Z"/></g>
<g><path style="opacity:1" fill="#575757" d="M 105.5,47.5 C 106.495,59.989 106.829,72.6557 106.5,85.5C 113.5,85.5 120.5,85.5 127.5,85.5C 120.352,86.4916 113.019,86.825 105.5,86.5C 105.5,73.5 105.5,60.5 105.5,47.5 Z"/></g>
<g><path style="opacity:1" fill="#ec997e" d="M 441.5,119.5 C 318.167,119.5 194.833,119.5 71.5,119.5C 71.5,122.167 71.5,124.833 71.5,127.5C 70.5233,124.713 70.19,121.713 70.5,118.5C 194.334,118.167 318.001,118.5 441.5,119.5 Z"/></g>
<g><path style="opacity:1" fill="#e64c19" d="M 441.5,119.5 C 431.429,232.417 421.762,345.417 412.5,458.5C 372.739,488.374 328.072,506.04 278.5,511.5C 263.167,511.5 247.833,511.5 232.5,511.5C 188.584,507.027 148.25,492.527 111.5,468C 107.249,465.055 103.249,461.888 99.5,458.5C 90.6065,348.126 81.2731,237.792 71.5,127.5C 71.5,124.833 71.5,122.167 71.5,119.5C 194.833,119.5 318.167,119.5 441.5,119.5 Z"/></g>
<g><path style="opacity:1" fill="#f26518" d="M 256.5,456.5 C 288.385,447.094 320.385,438.094 352.5,429.5C 355.89,382.481 359.557,335.481 363.5,288.5C 327.833,288.5 292.167,288.5 256.5,288.5C 256.5,273.5 256.5,258.5 256.5,243.5C 235.167,243.5 213.833,243.5 192.5,243.5C 250.665,242.667 308.999,242.167 367.5,242C 369.077,226.238 370.411,210.405 371.5,194.5C 332.833,194.5 294.167,194.5 255.5,194.5C 255.5,179.833 255.5,165.167 255.5,150.5C 305.5,150.5 355.5,150.5 405.5,150.5C 395.674,256.748 386.674,363.081 378.5,469.5C 337.814,480.13 297.314,491.464 257,503.5C 256.5,487.837 256.333,472.17 256.5,456.5 Z"/></g>
<g><path style="opacity:1" fill="#fffdfd" d="M 255.5,194.5 C 294.167,194.5 332.833,194.5 371.5,194.5C 370.411,210.405 369.077,226.238 367.5,242C 308.999,242.167 250.665,242.667 192.5,243.5C 193.713,258.513 195.047,273.513 196.5,288.5C 216.5,288.5 236.5,288.5 256.5,288.5C 292.167,288.5 327.833,288.5 363.5,288.5C 359.557,335.481 355.89,382.481 352.5,429.5C 320.385,438.094 288.385,447.094 256.5,456.5C 224.397,447.911 192.397,438.911 160.5,429.5C 158.31,405.512 156.31,381.512 154.5,357.5C 170.833,357.5 187.167,357.5 203.5,357.5C 203.5,369.833 203.5,382.167 203.5,394.5C 221.167,399.167 238.833,403.833 256.5,408.5C 273,403.916 289.5,399.249 306,394.5C 307.905,375.193 309.405,355.86 310.5,336.5C 292.5,336.5 274.5,336.5 256.5,336.5C 221.5,336.5 186.5,336.5 151.5,336.5C 148.386,289.128 144.719,241.795 140.5,194.5C 178.833,194.5 217.167,194.5 255.5,194.5 Z"/></g>
<g><path style="opacity:1" fill="#e64c18" d="M 192.5,243.5 C 213.833,243.5 235.167,243.5 256.5,243.5C 256.5,258.5 256.5,273.5 256.5,288.5C 236.5,288.5 216.5,288.5 196.5,288.5C 195.047,273.513 193.713,258.513 192.5,243.5 Z"/></g>
<g><path style="opacity:1" fill="#f36518" d="M 256.5,336.5 C 274.5,336.5 292.5,336.5 310.5,336.5C 309.405,355.86 307.905,375.193 306,394.5C 289.5,399.249 273,403.916 256.5,408.5C 256.5,384.5 256.5,360.5 256.5,336.5 Z"/></g>
</svg>
