<?xml version="1.0" encoding="UTF-8"?>
<!DOCTYPE svg PUBLIC "-//W3C//DTD SVG 1.1//EN" "http://www.w3.org/Graphics/SVG/1.1/DTD/svg11.dtd">
<svg xmlns="http://www.w3.org/2000/svg" version="1.1" width="512px" height="512px" style="shape-rendering:geometricPrecision; text-rendering:geometricPrecision; image-rendering:optimizeQuality; fill-rule:evenodd; clip-rule:evenodd" xmlns:xlink="http://www.w3.org/1999/xlink">
<g><path style="opacity:0.995" fill="#f2f1f1" d="M 233.5,-0.5 C 248.167,-0.5 262.833,-0.5 277.5,-0.5C 377.805,11.9821 449.305,63.9821 492,155.5C 502.297,180.687 508.797,206.687 511.5,233.5C 511.5,248.167 511.5,262.833 511.5,277.5C 501.575,364.392 459.575,430.726 385.5,476.5C 385.83,458.659 385.497,440.992 384.5,423.5C 383.755,414.503 379.089,408.67 370.5,406C 355.714,402.524 342.047,405.024 329.5,413.5C 330.97,417.048 331.97,420.715 332.5,424.5C 337.937,421.733 343.604,419.233 349.5,417C 363.029,415.697 369.029,421.864 367.5,435.5C 353.515,436.322 341.348,441.322 331,450.5C 326.155,458.718 326.489,466.718 332,474.5C 339,480.938 346.833,482.105 355.5,478C 359.668,475.75 363.668,473.25 367.5,470.5C 369.288,475.957 372.954,479.29 378.5,480.5C 346.858,497.493 313.192,507.826 277.5,511.5C 262.833,511.5 248.167,511.5 233.5,511.5C 207.519,509.088 182.519,502.755 158.5,492.5C 163.01,485.807 166.177,478.474 168,470.5C 168.5,445.502 168.667,420.502 168.5,395.5C 169.49,389.355 169.823,383.022 169.5,376.5C 162.646,376.176 155.979,376.509 149.5,377.5C 150.607,406.152 150.774,434.819 150,463.5C 149.529,471.718 147.362,479.384 143.5,486.5C 59.104,442.08 11.104,372.413 -0.5,277.5C -0.5,262.833 -0.5,248.167 -0.5,233.5C 11.9821,133.195 63.9821,61.6947 155.5,19C 180.687,8.70332 206.687,2.20332 233.5,-0.5 Z"/></g>
<g><path style="opacity:1" fill="#de151c" d="M 289.5,5.5 C 300.469,20.2843 302.302,36.2843 295,53.5C 290.808,62.5536 285.141,70.5536 278,77.5C 263.394,90.1033 249.394,103.437 236,117.5C 224.078,133.177 223.411,149.511 234,166.5C 242.1,175.893 248.433,186.227 253,197.5C 232.632,182.811 217.966,163.811 209,140.5C 207.509,131.995 208.843,123.995 213,116.5C 228.329,101.601 244.496,87.7674 261.5,75C 272.544,65.6332 281.711,54.7998 289,42.5C 293.417,30.2376 293.584,17.9043 289.5,5.5 Z"/></g>
<g><path style="opacity:1" fill="#de131b" d="M 327.5,78.5 C 328.552,78.3505 329.552,78.5172 330.5,79C 311.039,88.1331 294.539,100.966 281,117.5C 274.687,128.768 275.02,139.768 282,150.5C 301.023,167.838 301.189,185.338 282.5,203C 278.464,206.18 274.131,208.513 269.5,210C 277.073,201.941 279.573,192.441 277,181.5C 272.7,176.199 268.034,171.199 263,166.5C 250.224,140.395 255.724,118.895 279.5,102C 294.639,92.2631 310.639,84.4297 327.5,78.5 Z"/></g>
<g><path style="opacity:1" fill="#de181e" d="M 350.5,196.5 C 361.106,196.203 370.773,199.036 379.5,205C 386.135,211.496 388.302,219.329 386,228.5C 382.886,236.9 377.719,243.733 370.5,249C 358.172,257.215 344.839,262.881 330.5,266C 343.667,260.164 355.167,251.997 365,241.5C 371.916,232.288 373.249,222.288 369,211.5C 361.537,203.344 352.371,200.177 341.5,202C 344.263,199.626 347.263,197.792 350.5,196.5 Z"/></g>
<g><path style="opacity:1" fill="#e76064" d="M 197.5,201.5 C 203.653,200.347 209.986,200.18 216.5,201C 214.08,201.29 211.746,201.79 209.5,202.5C 205.702,201.517 201.702,201.183 197.5,201.5 Z"/></g>
<g><path style="opacity:1" fill="#de181e" d="M 197.5,201.5 C 201.702,201.183 205.702,201.517 209.5,202.5C 198.524,203.073 188.524,206.407 179.5,212.5C 178.233,214.371 178.233,216.204 179.5,218C 185.649,220.063 191.982,221.396 198.5,222C 226.508,222.568 254.508,222.235 282.5,221C 297.595,219.272 312.595,217.272 327.5,215C 313.188,221.662 298.188,225.995 282.5,228C 268.807,229.043 255.14,230.377 241.5,232C 215.25,233.786 189.25,232.119 163.5,227C 160.382,225.941 157.382,224.608 154.5,223C 152.74,219.17 153.74,216.17 157.5,214C 169.772,206.521 183.105,202.354 197.5,201.5 Z"/></g>
<g><path style="opacity:1" fill="#de131b" d="M 195.5,241.5 C 196.239,241.369 196.906,241.536 197.5,242C 193.28,246.108 193.613,249.775 198.5,253C 201.471,253.794 204.471,254.461 207.5,255C 234.576,257.42 261.576,256.754 288.5,253C 293.223,252.023 297.889,250.856 302.5,249.5C 306.978,252.81 311.311,256.31 315.5,260C 277.975,269.86 239.975,272.193 201.5,267C 193.472,265.736 186.639,262.236 181,256.5C 180.132,252.328 181.632,249.162 185.5,247C 189.056,245.392 192.389,243.559 195.5,241.5 Z"/></g>
<g><path style="opacity:1" fill="#de171c" d="M 203.5,280.5 C 204.552,280.351 205.552,280.517 206.5,281C 203.833,283.333 203.833,285.667 206.5,288C 209.246,289.75 212.246,290.75 215.5,291C 241.185,293.76 266.685,292.594 292,287.5C 297.744,291.626 303.911,295.126 310.5,298C 281.648,308.325 251.982,311.659 221.5,308C 210.262,306.928 200.429,302.761 192,295.5C 191.333,293.167 191.333,290.833 192,288.5C 195.464,285.195 199.297,282.528 203.5,280.5 Z"/></g>
<g><path style="opacity:1" fill="#de161c" d="M 160.5,305.5 C 166.176,305.334 171.843,305.501 177.5,306C 168.984,308.731 160.65,312.064 152.5,316C 148.479,318.031 147.813,320.697 150.5,324C 154.035,325.706 157.702,327.04 161.5,328C 192.309,332.955 223.309,334.622 254.5,333C 284.975,331.912 315.308,329.246 345.5,325C 352.752,324.253 359.252,321.753 365,317.5C 366.508,309.692 368.341,309.526 370.5,317C 368.202,323.018 363.869,327.018 357.5,329C 340.584,334.583 323.25,338.25 305.5,340C 264.224,343.838 222.891,344.504 181.5,342C 164.519,341.245 147.853,338.578 131.5,334C 125.457,332.303 123.29,328.469 125,322.5C 129.323,317.079 134.823,313.246 141.5,311C 147.918,308.984 154.252,307.15 160.5,305.5 Z"/></g>
<g><path style="opacity:1" fill="#df1d21" d="M 384.5,329.5 C 385.043,329.56 385.376,329.893 385.5,330.5C 382.093,338.226 376.427,343.726 368.5,347C 355.347,352.372 341.68,355.705 327.5,357C 283.526,362.434 239.526,362.767 195.5,358C 187.518,356.671 179.851,354.338 172.5,351C 216.441,355.072 260.441,355.405 304.5,352C 327.566,349.65 349.899,344.317 371.5,336C 376.156,334.294 380.49,332.127 384.5,329.5 Z"/></g>
<g><path style="opacity:1" fill="#de0e18" d="M 149.5,377.5 C 155.833,377.5 162.167,377.5 168.5,377.5C 168.5,383.5 168.5,389.5 168.5,395.5C 168.667,420.502 168.5,445.502 168,470.5C 166.177,478.474 163.01,485.807 158.5,492.5C 153.394,490.781 148.394,488.781 143.5,486.5C 147.362,479.384 149.529,471.718 150,463.5C 150.774,434.819 150.607,406.152 149.5,377.5 Z"/></g>
<g><path style="opacity:1" fill="#e66369" d="M 149.5,377.5 C 155.979,376.509 162.646,376.176 169.5,376.5C 169.823,383.022 169.49,389.355 168.5,395.5C 168.5,389.5 168.5,383.5 168.5,377.5C 162.167,377.5 155.833,377.5 149.5,377.5 Z"/></g>
<g><path style="opacity:1" fill="#de151c" d="M 205.5,404.5 C 213.324,404.032 220.991,404.865 228.5,407C 233.731,409.232 237.231,413.065 239,418.5C 240.465,438.766 240.965,459.099 240.5,479.5C 237.15,479.665 233.817,479.498 230.5,479C 227.032,476.876 224.365,474.043 222.5,470.5C 216.171,475.997 208.838,479.33 200.5,480.5C 186.54,477.941 181.04,469.608 184,455.5C 187.966,447.88 194.133,442.713 202.5,440C 208.736,438.024 215.07,436.524 221.5,435.5C 224.085,421.914 218.418,415.748 204.5,417C 198.771,419.535 193.104,422.035 187.5,424.5C 186.662,420.501 186.162,416.501 186,412.5C 192.329,409.12 198.829,406.454 205.5,404.5 Z"/></g>
<g><path style="opacity:1" fill="#de131b" d="M 384.5,423.5 C 384.819,441.577 384.486,459.577 383.5,477.5C 382.035,478.737 380.368,479.737 378.5,480.5C 372.954,479.29 369.288,475.957 367.5,470.5C 363.668,473.25 359.668,475.75 355.5,478C 346.833,482.105 339,480.938 332,474.5C 326.489,466.718 326.155,458.718 331,450.5C 341.348,441.322 353.515,436.322 367.5,435.5C 369.029,421.864 363.029,415.697 349.5,417C 343.604,419.233 337.937,421.733 332.5,424.5C 331.97,420.715 330.97,417.048 329.5,413.5C 342.047,405.024 355.714,402.524 370.5,406C 379.089,408.67 383.755,414.503 384.5,423.5 Z"/></g>
<g><path style="opacity:1" fill="#de131b" d="M 260.5,404.5 C 263.711,404.012 266.544,404.679 269,406.5C 274.405,424.213 279.905,441.879 285.5,459.5C 291.167,441.498 296.834,423.498 302.5,405.5C 307.833,405.5 313.167,405.5 318.5,405.5C 309.049,429.013 299.882,452.68 291,476.5C 287.644,477.738 284.144,478.404 280.5,478.5C 278.359,478.387 276.525,477.72 275,476.5C 266.265,453.461 257.431,430.461 248.5,407.5C 252.71,406.822 256.71,405.822 260.5,404.5 Z"/></g>
<g><path style="opacity:1" fill="#eba2a6" d="M 384.5,423.5 C 385.497,440.992 385.83,458.659 385.5,476.5C 385.158,477.338 384.492,477.672 383.5,477.5C 384.486,459.577 384.819,441.577 384.5,423.5 Z"/></g>
<g><path style="opacity:1" fill="#f2ecec" d="M 221.5,444.5 C 222.652,449.985 222.818,455.651 222,461.5C 217.609,466.617 212.109,468.783 205.5,468C 200.289,463.836 199.122,458.67 202,452.5C 203.731,450.383 205.898,448.883 208.5,448C 212.974,446.88 217.307,445.714 221.5,444.5 Z"/></g>
<g><path style="opacity:1" fill="#f2e9e9" d="M 364.5,444.5 C 365.5,444.5 366.5,444.5 367.5,444.5C 367.666,450.176 367.499,455.843 367,461.5C 363.193,464.902 358.86,467.235 354,468.5C 346.839,467.207 343.839,462.874 345,455.5C 346.122,453.376 347.622,451.543 349.5,450C 354.34,447.386 359.34,445.553 364.5,444.5 Z"/></g>
</svg>
