<?xml version="1.0" encoding="UTF-8"?>
<!DOCTYPE svg PUBLIC "-//W3C//DTD SVG 1.1//EN" "http://www.w3.org/Graphics/SVG/1.1/DTD/svg11.dtd">
<svg xmlns="http://www.w3.org/2000/svg" version="1.1" width="512px" height="512px" style="shape-rendering:geometricPrecision; text-rendering:geometricPrecision; image-rendering:optimizeQuality; fill-rule:evenodd; clip-rule:evenodd" xmlns:xlink="http://www.w3.org/1999/xlink">
<g><path style="opacity:0.981" fill="#e3ba41" d="M 233.5,-0.5 C 248.167,-0.5 262.833,-0.5 277.5,-0.5C 315.869,3.26516 351.869,14.7652 385.5,34C 390.916,37.0299 395.916,40.5299 400.5,44.5C 303.833,44.5 207.167,44.5 110.5,44.5C 136.212,26.3181 164.546,13.4848 195.5,6C 208.217,3.27 220.884,1.10333 233.5,-0.5 Z"/></g>
<g><path style="opacity:0.99" fill="#f1f1f1" d="M 110.5,44.5 C 207.167,44.5 303.833,44.5 400.5,44.5C 431.833,44.5 463.167,44.5 494.5,44.5C 494.5,83.1667 494.5,121.833 494.5,160.5C 493.501,223.664 493.168,286.998 493.5,350.5C 488.314,365.207 481.314,378.873 472.5,391.5C 471.833,300.167 471.167,208.833 470.5,117.5C 470.5,116.5 470.5,115.5 470.5,114.5C 470.5,99.1667 470.5,83.8333 470.5,68.5C 457.5,68.5 444.5,68.5 431.5,68.5C 319.904,67.5022 208.237,67.1689 96.5,67.5C 96.5,144.5 96.5,221.5 96.5,298.5C 88.6712,298.026 81.0045,298.692 73.5,300.5C 73.8326,225.331 73.4993,150.331 72.5,75.5C 72.5,65.1667 72.5,54.8333 72.5,44.5C 85.1667,44.5 97.8333,44.5 110.5,44.5 Z M 431.5,68.5 C 444.5,68.5 457.5,68.5 470.5,68.5C 470.5,83.8333 470.5,99.1667 470.5,114.5C 459.031,98.0176 446.031,82.6843 431.5,68.5 Z"/></g>
<g><path style="opacity:0.999" fill="#e4ba42" d="M 431.5,68.5 C 446.031,82.6843 459.031,98.0176 470.5,114.5C 470.5,115.5 470.5,116.5 470.5,117.5C 470.5,209.833 470.5,302.167 470.5,394.5C 459.797,412.55 446.464,428.55 430.5,442.5C 319.335,441.501 208.001,441.167 96.5,441.5C 96.5,420.5 96.5,399.5 96.5,378.5C 119.794,370.617 129.96,354.284 127,329.5C 122.317,313.651 112.15,303.318 96.5,298.5C 96.5,221.5 96.5,144.5 96.5,67.5C 208.237,67.1689 319.904,67.5022 431.5,68.5 Z"/></g>
<g><path style="opacity:0.986" fill="#e3b942" d="M 72.5,75.5 C 73.4993,150.331 73.8326,225.331 73.5,300.5C 50.173,311.506 42.3397,329.506 50,354.5C 54.8018,365.137 62.6351,372.47 73.5,376.5C 73.5,396.167 73.5,415.833 73.5,435.5C 30.226,391.737 5.55934,339.071 -0.5,277.5C -0.5,262.833 -0.5,248.167 -0.5,233.5C 5.76087,172.341 30.0942,119.675 72.5,75.5 Z"/></g>
<g><path style="opacity:1" fill="#f0ece1" d="M 470.5,117.5 C 471.167,208.833 471.833,300.167 472.5,391.5C 472.573,393.027 471.906,394.027 470.5,394.5C 470.5,302.167 470.5,209.833 470.5,117.5 Z"/></g>
<g><path style="opacity:0.957" fill="#e4ba42" d="M 494.5,160.5 C 503.115,184.261 508.782,208.594 511.5,233.5C 511.5,248.167 511.5,262.833 511.5,277.5C 509.06,302.694 503.06,327.027 493.5,350.5C 493.168,286.998 493.501,223.664 494.5,160.5 Z"/></g>
<g><path style="opacity:1" fill="#f1f1f0" d="M 352.5,179.5 C 374.212,178.009 393.879,183.509 411.5,196C 415.682,200.015 419.682,204.182 423.5,208.5C 412.526,216.307 401.693,224.307 391,232.5C 383.111,217.263 371.278,213.097 355.5,220C 344.66,230.187 344.993,240.187 356.5,250C 360.841,253.172 365.508,255.839 370.5,258C 382.246,262.471 393.913,267.138 405.5,272C 438.925,293.537 445.759,321.704 426,356.5C 414.296,369.936 399.462,377.436 381.5,379C 344.644,384.068 316.311,371.068 296.5,340C 307.367,332.969 318.367,326.135 329.5,319.5C 341.278,341.384 358.945,348.218 382.5,340C 390.875,334.379 394.042,326.546 392,316.5C 390.542,314.04 388.709,311.873 386.5,310C 372.143,302.155 357.477,294.822 342.5,288C 316.887,275.95 306.054,255.783 310,227.5C 313.549,201.8 327.716,185.8 352.5,179.5 Z"/></g>
<g><path style="opacity:1" fill="#f1f1f1" d="M 235.5,183.5 C 248.833,183.5 262.167,183.5 275.5,183.5C 275.978,236.871 275.478,290.205 274,343.5C 268.444,358.21 258.277,368.377 243.5,374C 227.946,379.324 211.946,380.991 195.5,379C 174.907,375.716 160.907,364.383 153.5,345C 163.961,337.264 174.628,329.764 185.5,322.5C 189.721,331.555 196.388,338.055 205.5,342C 222.257,344.886 232.091,338.053 235,321.5C 235.5,275.501 235.667,229.501 235.5,183.5 Z"/></g>
<g><path style="opacity:1" fill="#3f4a43" d="M 96.5,298.5 C 112.15,303.318 122.317,313.651 127,329.5C 129.96,354.284 119.794,370.617 96.5,378.5C 88.5953,380.219 80.9286,379.552 73.5,376.5C 62.6351,372.47 54.8018,365.137 50,354.5C 42.3397,329.506 50.173,311.506 73.5,300.5C 81.0045,298.692 88.6712,298.026 96.5,298.5 Z"/></g>
<g><path style="opacity:1" fill="#f1f1f1" d="M 73.5,376.5 C 80.9286,379.552 88.5953,380.219 96.5,378.5C 96.5,399.5 96.5,420.5 96.5,441.5C 207.5,442.167 318.5,442.833 429.5,443.5C 421.574,451.457 412.908,458.457 403.5,464.5C 304.833,464.5 206.167,464.5 107.5,464.5C 94.985,456.326 83.6517,446.659 73.5,435.5C 73.5,415.833 73.5,396.167 73.5,376.5 Z"/></g>
<g><path style="opacity:1" fill="#ecdeb5" d="M 96.5,441.5 C 208.001,441.167 319.335,441.501 430.5,442.5C 430.5,443.167 430.167,443.5 429.5,443.5C 318.5,442.833 207.5,442.167 96.5,441.5 Z"/></g>
<g><path style="opacity:0.981" fill="#e4ba43" d="M 107.5,464.5 C 206.167,464.5 304.833,464.5 403.5,464.5C 365.713,491.21 323.713,506.876 277.5,511.5C 262.833,511.5 248.167,511.5 233.5,511.5C 187.287,506.876 145.287,491.21 107.5,464.5 Z"/></g>
</svg>
