<?xml version="1.0" encoding="UTF-8"?>
<!DOCTYPE svg PUBLIC "-//W3C//DTD SVG 1.1//EN" "http://www.w3.org/Graphics/SVG/1.1/DTD/svg11.dtd">
<svg xmlns="http://www.w3.org/2000/svg" version="1.1" width="512px" height="512px" style="shape-rendering:geometricPrecision; text-rendering:geometricPrecision; image-rendering:optimizeQuality; fill-rule:evenodd; clip-rule:evenodd" xmlns:xlink="http://www.w3.org/1999/xlink">
<g><path style="opacity:1" fill="#13aa52" d="M 233.5,-0.5 C 247.833,-0.5 262.167,-0.5 276.5,-0.5C 367.96,9.83237 436.46,54.8324 482,134.5C 498.04,165.775 507.873,198.775 511.5,233.5C 511.5,248.167 511.5,262.833 511.5,277.5C 499.445,377.048 448.111,448.214 357.5,491C 331.108,502.106 303.775,508.939 275.5,511.5C 262.167,511.5 248.833,511.5 235.5,511.5C 143.62,501.493 74.7866,456.493 29,376.5C 12.9596,345.224 3.12623,312.224 -0.5,277.5C -0.5,262.833 -0.5,248.167 -0.5,233.5C 11.9842,133.193 63.9842,61.693 155.5,19C 180.733,8.86011 206.733,2.36011 233.5,-0.5 Z"/></g>
<g><path style="opacity:1" fill="#fefefe" d="M 255.5,102.5 C 260.938,115.673 269.104,127.007 280,136.5C 317.217,179.154 331.55,228.488 323,284.5C 315.279,319.293 297.445,347.626 269.5,369.5C 265.856,381.553 263.69,393.887 263,406.5C 261.246,408.25 259.079,408.917 256.5,408.5C 255.423,396.458 253.923,384.458 252,372.5C 193.436,324.953 175.436,264.953 198,192.5C 208.957,161.557 226.957,135.557 252,114.5C 254.677,110.966 255.844,106.966 255.5,102.5 Z"/></g>
<g><path style="opacity:1" fill="#28ae5b" d="M 264.5,343.5 C 264.821,348.695 264.487,353.695 263.5,358.5C 259.305,350.75 256.805,342.417 256,333.5C 255.404,300.826 255.738,268.159 257,235.5C 257.143,231.381 257.81,227.381 259,223.5C 260.274,227.985 260.941,232.652 261,237.5C 263.118,272.803 264.285,308.137 264.5,343.5 Z"/></g>
<g><path style="opacity:1" fill="#7bcf9d" d="M 264.5,343.5 C 265.815,348.68 265.815,354.014 264.5,359.5C 263.893,359.376 263.56,359.043 263.5,358.5C 264.487,353.695 264.821,348.695 264.5,343.5 Z"/></g>
</svg>
