<?xml version="1.0" encoding="UTF-8"?>
<!DOCTYPE svg PUBLIC "-//W3C//DTD SVG 1.1//EN" "http://www.w3.org/Graphics/SVG/1.1/DTD/svg11.dtd">
<svg xmlns="http://www.w3.org/2000/svg" version="1.1" width="512px" height="512px" style="shape-rendering:geometricPrecision; text-rendering:geometricPrecision; image-rendering:optimizeQuality; fill-rule:evenodd; clip-rule:evenodd" xmlns:xlink="http://www.w3.org/1999/xlink">
<g><path style="opacity:0.995" fill="#f1f1f1" d="M 233.5,-0.5 C 248.5,-0.5 263.5,-0.5 278.5,-0.5C 361.155,9.3699 425.655,48.7032 472,117.5C 483.926,137.02 493.426,157.687 500.5,179.5C 495.38,177.404 490.213,175.404 485,173.5C 473.851,152.869 463.518,131.869 454,110.5C 437.034,84.8579 414.201,66.6912 385.5,56C 379.634,54.2132 373.634,53.2132 367.5,53C 358.357,45.7619 348.024,41.2619 336.5,39.5C 332.488,39.1739 329.155,40.5072 326.5,43.5C 324.679,45.4753 323.679,47.8086 323.5,50.5C 324.046,54.6862 325.213,58.6862 327,62.5C 331.333,68.1667 335.667,73.8333 340,79.5C 343.931,93.0351 349.264,106.035 356,118.5C 357.458,120.96 359.291,123.127 361.5,125C 354.221,141.291 352.721,158.124 357,175.5C 358.916,183.171 362.75,189.671 368.5,195C 374.089,197.778 378.589,196.612 382,191.5C 382.864,185.635 384.364,179.969 386.5,174.5C 392.098,185.367 398.931,195.367 407,204.5C 410.167,207 413.333,209.5 416.5,212C 417.759,212.982 419.092,213.315 420.5,213C 405.655,195.818 393.988,176.651 385.5,155.5C 377.563,164.97 373.563,175.97 373.5,188.5C 367.26,185.035 363.76,179.701 363,172.5C 360.034,156.763 361.367,141.43 367,126.5C 367.667,124.833 367.667,123.167 367,121.5C 362.546,116.372 358.879,110.705 356,104.5C 353.064,95.0258 349.731,85.6925 346,76.5C 340.609,69.4408 335.609,62.1074 331,54.5C 329.349,49.8593 330.849,47.1926 335.5,46.5C 345.786,49.4763 355.119,54.3096 363.5,61C 373.792,61.5713 383.792,63.5713 393.5,67C 424.883,85.3934 447.383,111.56 461,145.5C 465.333,155.5 469.667,165.5 474,175.5C 476.205,178.04 478.705,180.207 481.5,182C 488.906,184.413 496.239,186.913 503.5,189.5C 505.149,196.097 506.482,202.763 507.5,209.5C 501.37,209.733 496.036,211.899 491.5,216C 496.07,224.738 502.736,231.238 511.5,235.5C 511.5,249.5 511.5,263.5 511.5,277.5C 508.854,306.085 501.52,333.418 489.5,359.5C 480.5,359.5 471.5,359.5 462.5,359.5C 462.5,323.167 462.5,286.833 462.5,250.5C 456.021,249.509 449.354,249.176 442.5,249.5C 442.168,291.337 442.501,333.003 443.5,374.5C 456.5,374.5 469.5,374.5 482.5,374.5C 444.783,443.685 387.45,487.519 310.5,506C 299.424,508.254 288.424,510.087 277.5,511.5C 262.833,511.5 248.167,511.5 233.5,511.5C 150.316,502.099 85.4824,462.766 39,393.5C 32.1226,383.08 26.2893,372.08 21.5,360.5C 22.797,336.998 23.9637,313.331 25,289.5C 25.3028,285.106 25.9695,280.773 27,276.5C 37.5312,308.427 47.8645,340.427 58,372.5C 60.5539,373.771 63.3872,374.438 66.5,374.5C 69.4206,374.476 72.254,374.143 75,373.5C 85.1353,340.761 95.4687,308.094 106,275.5C 110.1,306.696 112.266,338.03 112.5,369.5C 112.5,371.167 112.5,372.833 112.5,374.5C 119.354,374.824 126.021,374.491 132.5,373.5C 131.617,332.009 128.617,290.676 123.5,249.5C 115.248,249.184 107.081,249.518 99,250.5C 88.864,280.575 78.5307,310.575 68,340.5C 58.1354,310.573 48.4688,280.573 39,250.5C 29.9172,249.515 20.7506,249.182 11.5,249.5C 9.3012,269.821 7.3012,290.155 5.5,310.5C 2.75618,299.624 0.756182,288.624 -0.5,277.5C -0.5,262.833 -0.5,248.167 -0.5,233.5C 11.9821,133.195 63.9821,61.6947 155.5,19C 180.687,8.70332 206.687,2.20332 233.5,-0.5 Z"/></g>
<g><path style="opacity:1" fill="#5684a4" d="M 500.5,179.5 C 501.497,182.817 502.497,186.15 503.5,189.5C 496.239,186.913 488.906,184.413 481.5,182C 478.705,180.207 476.205,178.04 474,175.5C 469.667,165.5 465.333,155.5 461,145.5C 447.383,111.56 424.883,85.3934 393.5,67C 383.792,63.5713 373.792,61.5713 363.5,61C 355.119,54.3096 345.786,49.4763 335.5,46.5C 330.849,47.1926 329.349,49.8593 331,54.5C 335.609,62.1074 340.609,69.4408 346,76.5C 349.731,85.6925 353.064,95.0258 356,104.5C 358.879,110.705 362.546,116.372 367,121.5C 367.667,123.167 367.667,124.833 367,126.5C 361.367,141.43 360.034,156.763 363,172.5C 363.76,179.701 367.26,185.035 373.5,188.5C 373.563,175.97 377.563,164.97 385.5,155.5C 393.988,176.651 405.655,195.818 420.5,213C 419.092,213.315 417.759,212.982 416.5,212C 413.333,209.5 410.167,207 407,204.5C 398.931,195.367 392.098,185.367 386.5,174.5C 384.364,179.969 382.864,185.635 382,191.5C 378.589,196.612 374.089,197.778 368.5,195C 362.75,189.671 358.916,183.171 357,175.5C 352.721,158.124 354.221,141.291 361.5,125C 359.291,123.127 357.458,120.96 356,118.5C 349.264,106.035 343.931,93.0351 340,79.5C 335.667,73.8333 331.333,68.1667 327,62.5C 325.213,58.6862 324.046,54.6862 323.5,50.5C 323.679,47.8086 324.679,45.4753 326.5,43.5C 329.155,40.5072 332.488,39.1739 336.5,39.5C 348.024,41.2619 358.357,45.7619 367.5,53C 373.634,53.2132 379.634,54.2132 385.5,56C 414.201,66.6912 437.034,84.8579 454,110.5C 463.518,131.869 473.851,152.869 485,173.5C 490.213,175.404 495.38,177.404 500.5,179.5 Z"/></g>
<g><path style="opacity:1" fill="#5c88a7" d="M 368.5,76.5 C 374.575,75.5335 378.241,78.0335 379.5,84C 379.025,85.7633 378.358,87.43 377.5,89C 376.668,89.6877 376.002,89.521 375.5,88.5C 373.112,84.4656 370.778,80.4656 368.5,76.5 Z"/></g>
<g><path style="opacity:1" fill="#5986a6" d="M 507.5,209.5 C 508.468,211.607 508.802,213.941 508.5,216.5C 507.993,217.859 506.993,218.859 505.5,219.5C 506.521,221.188 507.855,222.521 509.5,223.5C 510.167,226.5 510.833,229.5 511.5,232.5C 511.5,233.5 511.5,234.5 511.5,235.5C 502.736,231.238 496.07,224.738 491.5,216C 496.036,211.899 501.37,209.733 507.5,209.5 Z"/></g>
<g><path style="opacity:0.847" fill="#e5e9eb" d="M 508.5,216.5 C 509.468,218.607 509.802,220.941 509.5,223.5C 507.855,222.521 506.521,221.188 505.5,219.5C 506.993,218.859 507.993,217.859 508.5,216.5 Z"/></g>
<g><path style="opacity:1" fill="#5382a3" d="M 267.5,248.5 C 280.834,247.094 293.501,249.261 305.5,255C 306.5,256 307.5,257 308.5,258C 306.765,260.637 305.432,263.47 304.5,266.5C 303.833,266.833 303.167,267.167 302.5,267.5C 290.566,263.039 278.566,262.539 266.5,266C 259.044,272.644 257.544,280.478 262,289.5C 265.251,293.422 269.084,296.588 273.5,299C 284.103,303.3 294.103,308.634 303.5,315C 319.644,329.91 320.81,346.076 307,363.5C 301.671,369.25 295.171,373.084 287.5,375C 269.255,378.859 252.589,375.359 237.5,364.5C 239.012,360.799 241.012,357.466 243.5,354.5C 254.939,359.861 266.939,362.027 279.5,361C 286.333,359.5 290.5,355.333 292,348.5C 294.383,342.793 293.716,337.46 290,332.5C 286.749,328.578 282.916,325.412 278.5,323C 265.673,317.502 254.506,309.668 245,299.5C 237.467,286.339 237.8,273.339 246,260.5C 252.287,254.777 259.453,250.777 267.5,248.5 Z"/></g>
<g><path style="opacity:1" fill="#5382a3" d="M 365.5,248.5 C 399.491,245.018 418.991,260.018 424,293.5C 424.667,305.5 424.667,317.5 424,329.5C 421.808,343.783 415.641,355.95 405.5,366C 412.659,369.745 419.659,373.745 426.5,378C 424.557,382.72 422.224,387.22 419.5,391.5C 410.297,385.801 400.964,380.301 391.5,375C 352.853,381.998 330.686,366.165 325,327.5C 321.996,306.202 325.662,286.202 336,267.5C 343.555,257.481 353.389,251.148 365.5,248.5 Z"/></g>
<g><path style="opacity:1" fill="#fea709" d="M 132.5,373.5 C 126.167,373.5 119.833,373.5 113.5,373.5C 113.768,371.901 113.434,370.568 112.5,369.5C 112.266,338.03 110.1,306.696 106,275.5C 95.4687,308.094 85.1353,340.761 75,373.5C 72.254,374.143 69.4206,374.476 66.5,374.5C 63.3872,374.438 60.5539,373.771 58,372.5C 47.8645,340.427 37.5312,308.427 27,276.5C 25.9695,280.773 25.3028,285.106 25,289.5C 23.9637,313.331 22.797,336.998 21.5,360.5C 13.9631,344.555 8.62973,327.889 5.5,310.5C 7.3012,290.155 9.3012,269.821 11.5,249.5C 20.7506,249.182 29.9172,249.515 39,250.5C 48.4688,280.573 58.1354,310.573 68,340.5C 78.5307,310.575 88.864,280.575 99,250.5C 107.081,249.518 115.248,249.184 123.5,249.5C 128.617,290.676 131.617,332.009 132.5,373.5 Z"/></g>
<g><path style="opacity:1" fill="#84a4bb" d="M 462.5,250.5 C 456.167,250.5 449.833,250.5 443.5,250.5C 443.5,291.833 443.5,333.167 443.5,374.5C 442.501,333.003 442.168,291.337 442.5,249.5C 449.354,249.176 456.021,249.509 462.5,250.5 Z"/></g>
<g><path style="opacity:1" fill="#5181a2" d="M 462.5,250.5 C 462.5,286.833 462.5,323.167 462.5,359.5C 471.5,359.5 480.5,359.5 489.5,359.5C 487.95,364.93 485.616,369.93 482.5,374.5C 469.5,374.5 456.5,374.5 443.5,374.5C 443.5,333.167 443.5,291.833 443.5,250.5C 449.833,250.5 456.167,250.5 462.5,250.5 Z"/></g>
<g><path style="opacity:1" fill="#f0f1f1" d="M 368.5,263.5 C 387.594,261.963 398.761,270.629 402,289.5C 404.529,306.98 403.862,324.313 400,341.5C 394.343,357.402 383.177,363.569 366.5,360C 354.917,354.067 348.417,344.567 347,331.5C 343.947,313.457 345.28,295.791 351,278.5C 354.912,271.075 360.746,266.075 368.5,263.5 Z"/></g>
<g><path style="opacity:1" fill="#fea70b" d="M 144.5,282.5 C 151.422,282.188 158.256,282.521 165,283.5C 173.836,308.34 180.836,333.674 186,359.5C 194.524,334.407 200.358,308.74 203.5,282.5C 210.5,282.5 217.5,282.5 224.5,282.5C 218.825,320.031 206.325,355.031 187,387.5C 181.472,397.367 173.305,403.867 162.5,407C 155.559,408.121 148.892,407.288 142.5,404.5C 141.511,400.893 141.177,397.226 141.5,393.5C 166.046,396.439 175.213,385.772 169,361.5C 160.522,335.233 152.355,308.9 144.5,282.5 Z"/></g>
<g><path style="opacity:1" fill="#fbc053" d="M 112.5,369.5 C 113.434,370.568 113.768,371.901 113.5,373.5C 119.833,373.5 126.167,373.5 132.5,373.5C 126.021,374.491 119.354,374.824 112.5,374.5C 112.5,372.833 112.5,371.167 112.5,369.5 Z"/></g>
</svg>
