<?xml version="1.0" encoding="UTF-8"?>
<!DOCTYPE svg PUBLIC "-//W3C//DTD SVG 1.1//EN" "http://www.w3.org/Graphics/SVG/1.1/DTD/svg11.dtd">
<svg xmlns="http://www.w3.org/2000/svg" version="1.1" width="512px" height="512px" style="shape-rendering:geometricPrecision; text-rendering:geometricPrecision; image-rendering:optimizeQuality; fill-rule:evenodd; clip-rule:evenodd" xmlns:xlink="http://www.w3.org/1999/xlink">
<g><path style="opacity:0.99" fill="#264d6f" d="M 233.5,-0.5 C 248.167,-0.5 262.833,-0.5 277.5,-0.5C 377.805,11.9821 449.305,63.9821 492,155.5C 502.297,180.687 508.797,206.687 511.5,233.5C 511.5,248.167 511.5,262.833 511.5,277.5C 509.5,295.499 505.833,313.166 500.5,330.5C 505.42,295.816 502.587,261.816 492,228.5C 486.629,213.477 477.796,200.977 465.5,191C 459.338,186.92 452.671,183.92 445.5,182C 427.222,180.553 408.889,180.053 390.5,180.5C 390.943,206.204 390.443,231.871 389,257.5C 380.883,287.614 361.383,305.114 330.5,310C 281.5,310.333 232.5,310.667 183.5,311C 159.285,317.884 144.785,333.717 140,358.5C 139.5,400.499 139.333,442.499 139.5,484.5C 107.42,467.765 79.7531,445.432 56.5,417.5C 59.8898,418.023 63.2231,418.857 66.5,420C 84.4969,420.5 102.497,420.667 120.5,420.5C 120.058,395.129 120.558,369.795 122,344.5C 130.372,315.223 149.538,297.723 179.5,292C 227.833,291.667 276.167,291.333 324.5,291C 350.652,286.182 366.152,270.682 371,244.5C 371.667,198.167 371.667,151.833 371,105.5C 365.641,92.8059 356.807,83.3059 344.5,77C 326.078,68.3048 306.745,62.6382 286.5,60C 248.417,54.6391 211.417,58.6391 175.5,72C 164.38,76.6372 154.547,83.1372 146,91.5C 143.148,95.2042 140.815,99.2042 139,103.5C 137.555,125.455 137.055,147.455 137.5,169.5C 177.167,169.5 216.833,169.5 256.5,169.5C 256.5,175.5 256.5,181.5 256.5,187.5C 194.499,187.333 132.499,187.5 70.5,188C 54.3675,190.983 41.5342,199.15 32,212.5C 18.6583,233.517 11.325,256.517 10,281.5C 9.33795,297.845 9.50461,314.178 10.5,330.5C 5.16663,313.166 1.49997,295.499 -0.5,277.5C -0.5,262.833 -0.5,248.167 -0.5,233.5C 11.9821,133.195 63.9821,61.6947 155.5,19C 180.687,8.70332 206.687,2.20332 233.5,-0.5 Z"/></g>
<g><path style="opacity:1" fill="#3775ab" d="M 56.5,417.5 C 35.2184,391.821 19.885,362.821 10.5,330.5C 9.50461,314.178 9.33795,297.845 10,281.5C 11.325,256.517 18.6583,233.517 32,212.5C 41.5342,199.15 54.3675,190.983 70.5,188C 132.499,187.5 194.499,187.333 256.5,187.5C 256.5,181.5 256.5,175.5 256.5,169.5C 216.833,169.5 177.167,169.5 137.5,169.5C 137.055,147.455 137.555,125.455 139,103.5C 140.815,99.2042 143.148,95.2042 146,91.5C 154.547,83.1372 164.38,76.6372 175.5,72C 211.417,58.6391 248.417,54.6391 286.5,60C 306.745,62.6382 326.078,68.3048 344.5,77C 356.807,83.3059 365.641,92.8059 371,105.5C 371.667,151.833 371.667,198.167 371,244.5C 366.152,270.682 350.652,286.182 324.5,291C 276.167,291.333 227.833,291.667 179.5,292C 149.538,297.723 130.372,315.223 122,344.5C 120.558,369.795 120.058,395.129 120.5,420.5C 102.497,420.667 84.4969,420.5 66.5,420C 63.2231,418.857 59.8898,418.023 56.5,417.5 Z"/></g>
<g><path style="opacity:1" fill="#eff0f0" d="M 183.5,94.5 C 201.491,93.9923 210.325,102.659 210,120.5C 205.721,133.226 196.888,138.726 183.5,137C 168.734,130.963 164.234,120.463 170,105.5C 173.336,100.269 177.836,96.6018 183.5,94.5 Z"/></g>
<g><path style="opacity:1" fill="#f5cc01" d="M 500.5,330.5 C 492.647,357.871 480.314,382.871 463.5,405.5C 456.634,409.402 449.3,412.236 441.5,414C 379.501,414.5 317.501,414.667 255.5,414.5C 255.5,420.5 255.5,426.5 255.5,432.5C 294.833,432.5 334.167,432.5 373.5,432.5C 373.818,449.577 373.485,466.577 372.5,483.5C 362.575,488.926 352.241,493.593 341.5,497.5C 347.491,483.993 344.158,473.493 331.5,466C 315.258,461.782 305.258,467.782 301.5,484C 301.763,488.759 302.93,493.259 305,497.5C 307.729,500.399 310.562,503.066 313.5,505.5C 301.442,507.954 289.442,509.954 277.5,511.5C 262.833,511.5 248.167,511.5 233.5,511.5C 200.643,508.116 169.309,499.116 139.5,484.5C 139.333,442.499 139.5,400.499 140,358.5C 144.785,333.717 159.285,317.884 183.5,311C 232.5,310.667 281.5,310.333 330.5,310C 361.383,305.114 380.883,287.614 389,257.5C 390.443,231.871 390.943,206.204 390.5,180.5C 408.889,180.053 427.222,180.553 445.5,182C 452.671,183.92 459.338,186.92 465.5,191C 477.796,200.977 486.629,213.477 492,228.5C 502.587,261.816 505.42,295.816 500.5,330.5 Z"/></g>
<g><path style="opacity:0.987" fill="#264d6e" d="M 463.5,405.5 C 439.953,438.41 410.286,464.077 374.5,482.5C 374.83,465.658 374.497,448.992 373.5,432.5C 334.167,432.5 294.833,432.5 255.5,432.5C 255.5,426.5 255.5,420.5 255.5,414.5C 317.501,414.667 379.501,414.5 441.5,414C 449.3,412.236 456.634,409.402 463.5,405.5 Z"/></g>
<g><path style="opacity:1" fill="#69764b" d="M 373.5,432.5 C 374.497,448.992 374.83,465.658 374.5,482.5C 374.158,483.338 373.492,483.672 372.5,483.5C 373.485,466.577 373.818,449.577 373.5,432.5 Z"/></g>
<g><path style="opacity:1" fill="#f1f0ee" d="M 341.5,497.5 C 332.256,500.478 322.923,503.144 313.5,505.5C 310.562,503.066 307.729,500.399 305,497.5C 302.93,493.259 301.763,488.759 301.5,484C 305.258,467.782 315.258,461.782 331.5,466C 344.158,473.493 347.491,483.993 341.5,497.5 Z"/></g>
</svg>
