<?xml version="1.0" encoding="UTF-8"?>
<!DOCTYPE svg PUBLIC "-//W3C//DTD SVG 1.1//EN" "http://www.w3.org/Graphics/SVG/1.1/DTD/svg11.dtd">
<svg xmlns="http://www.w3.org/2000/svg" version="1.1" width="512px" height="512px" style="shape-rendering:geometricPrecision; text-rendering:geometricPrecision; image-rendering:optimizeQuality; fill-rule:evenodd; clip-rule:evenodd" xmlns:xlink="http://www.w3.org/1999/xlink">
<g><path style="opacity:0.987" fill="#5adafc" d="M 233.5,-0.5 C 248.167,-0.5 262.833,-0.5 277.5,-0.5C 377.805,11.9821 449.305,63.9821 492,155.5C 502.297,180.687 508.797,206.687 511.5,233.5C 511.5,248.167 511.5,262.833 511.5,277.5C 504.498,345.337 475.832,402.171 425.5,448C 419.619,452.761 413.619,457.261 407.5,461.5C 412.343,432.717 411.009,404.217 403.5,376C 414.574,370.968 425.907,366.301 437.5,362C 460.678,352.676 479.845,338.176 495,318.5C 507.442,296.235 506.108,274.902 491,254.5C 477.767,239.964 462.267,228.464 444.5,220C 431.442,214.147 418.108,208.98 404.5,204.5C 404.539,196.444 405.705,188.444 408,180.5C 411.971,157.01 411.305,133.677 406,110.5C 394.027,75.5892 369.86,62.0892 333.5,70C 311.411,77.3744 291.411,88.3744 273.5,103C 267.647,108.354 261.647,113.52 255.5,118.5C 236.384,100.773 215.051,86.2725 191.5,75C 138.503,57.0876 108.336,75.9209 101,131.5C 100.129,147.897 100.795,164.231 103,180.5C 104.951,188.42 106.451,196.42 107.5,204.5C 80.9753,212.051 56.642,223.884 34.5,240C 22.6799,249.483 14.1799,261.316 9,275.5C 5.60141,290.775 7.93475,305.108 16,318.5C 28.8767,335.71 45.0434,348.877 64.5,358C 78.8156,364.333 93.149,370.333 107.5,376C 99.9908,404.211 98.6575,432.711 103.5,461.5C 49.2751,421.106 15.7751,367.44 3,300.5C 1.76743,292.696 0.600758,285.029 -0.5,277.5C -0.5,262.833 -0.5,248.167 -0.5,233.5C 11.9821,133.195 63.9821,61.6947 155.5,19C 180.687,8.70332 206.687,2.20332 233.5,-0.5 Z"/></g>
<g><path style="opacity:1" fill="#f0f1f2" d="M 407.5,461.5 C 398.025,469.41 387.692,476.076 376.5,481.5C 375.167,481.5 373.833,481.5 372.5,481.5C 380.396,472.001 384.896,461.001 386,448.5C 387.836,426.215 386.169,404.215 381,382.5C 379.938,381.903 378.772,381.57 377.5,381.5C 356.624,385.868 335.624,389.368 314.5,392C 301.446,409.892 287.446,427.059 272.5,443.5C 289.134,459.948 308.134,473.115 329.5,483C 339.787,487.026 350.454,488.526 361.5,487.5C 361.5,487.833 361.5,488.167 361.5,488.5C 348.294,495.459 334.294,500.459 319.5,503.5C 307.453,498.643 296.12,492.476 285.5,485C 275.355,477.022 265.355,468.856 255.5,460.5C 239.765,474.737 222.765,487.237 204.5,498C 200.183,499.937 195.85,501.77 191.5,503.5C 176.706,500.459 162.706,495.459 149.5,488.5C 149.5,488.167 149.5,487.833 149.5,487.5C 161.33,488.584 172.663,486.75 183.5,482C 203.97,472.109 222.303,459.275 238.5,443.5C 223.554,427.059 209.554,409.892 196.5,392C 174.012,389.363 151.679,385.863 129.5,381.5C 128.067,391.168 126.567,400.835 125,410.5C 124.333,423.167 124.333,435.833 125,448.5C 126.104,461.001 130.604,472.001 138.5,481.5C 137.833,481.833 137.167,482.167 136.5,482.5C 124.645,476.745 113.645,469.745 103.5,461.5C 98.6575,432.711 99.9908,404.211 107.5,376C 93.149,370.333 78.8156,364.333 64.5,358C 45.0434,348.877 28.8767,335.71 16,318.5C 7.93475,305.108 5.60141,290.775 9,275.5C 14.1799,261.316 22.6799,249.483 34.5,240C 56.642,223.884 80.9753,212.051 107.5,204.5C 106.451,196.42 104.951,188.42 103,180.5C 100.795,164.231 100.129,147.897 101,131.5C 108.336,75.9209 138.503,57.0876 191.5,75C 215.051,86.2725 236.384,100.773 255.5,118.5C 261.647,113.52 267.647,108.354 273.5,103C 291.411,88.3744 311.411,77.3744 333.5,70C 369.86,62.0892 394.027,75.5892 406,110.5C 411.305,133.677 411.971,157.01 408,180.5C 405.705,188.444 404.539,196.444 404.5,204.5C 418.108,208.98 431.442,214.147 444.5,220C 462.267,228.464 477.767,239.964 491,254.5C 506.108,274.902 507.442,296.235 495,318.5C 479.845,338.176 460.678,352.676 437.5,362C 425.907,366.301 414.574,370.968 403.5,376C 411.009,404.217 412.343,432.717 407.5,461.5 Z"/></g>
<g><path style="opacity:1" fill="#5bdafc" d="M 149.5,91.5 C 161.365,90.2181 172.699,92.0514 183.5,97C 203.97,106.891 222.303,119.725 238.5,135.5C 223.554,151.941 209.554,169.108 196.5,187C 174.961,189.312 153.628,192.812 132.5,197.5C 131.558,197.392 130.725,197.059 130,196.5C 123.968,171.72 122.634,146.72 126,121.5C 128.965,107.402 136.798,97.402 149.5,91.5 Z"/></g>
<g><path style="opacity:1" fill="#5bdafc" d="M 349.5,90.5 C 368.265,90.7564 379.765,100.09 384,118.5C 388.385,139.136 388.385,159.803 384,180.5C 382.894,186.195 381.728,191.861 380.5,197.5C 358.623,193.303 336.623,189.803 314.5,187C 301.446,169.108 287.446,151.941 272.5,135.5C 289.155,119.022 308.155,105.855 329.5,96C 336.129,93.5126 342.796,91.6793 349.5,90.5 Z"/></g>
<g><path style="opacity:1" fill="#5ddafc" d="M 254.5,152.5 C 264.959,161.702 274.293,172.035 282.5,183.5C 264.5,184.833 246.5,184.833 228.5,183.5C 236.937,172.951 245.603,162.617 254.5,152.5 Z"/></g>
<g><path style="opacity:1" fill="#5cdafc" d="M 230.5,207.5 C 254.222,206.967 277.889,207.8 301.5,210C 318.558,234.6 333.725,260.433 347,287.5C 347.667,288.833 347.667,290.167 347,291.5C 333.725,318.567 318.558,344.4 301.5,369C 270.829,372.307 240.163,372.307 209.5,369C 192.442,344.4 177.275,318.567 164,291.5C 163.333,290.167 163.333,288.833 164,287.5C 177.069,261.132 191.736,235.799 208,211.5C 209.491,209.996 211.324,209.163 213.5,209C 219.348,208.827 225.015,208.327 230.5,207.5 Z"/></g>
<g><path style="opacity:1" fill="#5fdafc" d="M 169.5,213.5 C 172.518,213.335 175.518,213.502 178.5,214C 168.449,229.261 159.283,245.094 151,261.5C 145.674,248.358 140.841,235.024 136.5,221.5C 147.373,218.061 158.373,215.395 169.5,213.5 Z"/></g>
<g><path style="opacity:1" fill="#5edafc" d="M 332.5,214.5 C 346.685,214.642 360.685,216.975 374.5,221.5C 370.159,235.024 365.326,248.358 360,261.5C 351.816,245.113 342.649,229.447 332.5,214.5 Z"/></g>
<g><path style="opacity:1" fill="#5bdafc" d="M 110.5,227.5 C 111.833,227.5 113.167,227.5 114.5,227.5C 120.583,248.749 128.25,269.415 137.5,289.5C 128.135,309.559 120.468,330.226 114.5,351.5C 92.9285,346.214 72.9285,337.381 54.5,325C 22.6182,301.234 22.6182,277.568 54.5,254C 72.0761,242.71 90.7428,233.877 110.5,227.5 Z"/></g>
<g><path style="opacity:1" fill="#5bdafc" d="M 396.5,227.5 C 418.071,232.786 438.071,241.619 456.5,254C 488.382,277.568 488.382,301.234 456.5,325C 437.92,337.027 417.92,345.861 396.5,351.5C 390.532,330.226 382.865,309.559 373.5,289.5C 382.75,269.415 390.417,248.749 396.5,227.5 Z"/></g>
<g><path style="opacity:1" fill="#f1f1f2" d="M 244.5,243.5 C 272.867,240.088 291.701,251.754 301,278.5C 304.471,307.074 292.638,325.908 265.5,335C 237.325,338.169 218.825,326.335 210,299.5C 206.551,271.479 218.051,252.813 244.5,243.5 Z"/></g>
<g><path style="opacity:1" fill="#5fdafc" d="M 150.5,317.5 C 159.177,333.682 168.51,349.515 178.5,365C 164.977,364.525 151.643,362.525 138.5,359C 137.572,358.612 136.905,357.945 136.5,357C 140.762,343.652 145.429,330.485 150.5,317.5 Z"/></g>
<g><path style="opacity:1" fill="#5fdafc" d="M 359.5,317.5 C 365.855,330.568 370.855,344.234 374.5,358.5C 360.656,361.863 346.656,364.03 332.5,365C 342.556,349.775 351.556,333.941 359.5,317.5 Z"/></g>
<g><path style="opacity:1" fill="#5bdafc" d="M 149.5,487.5 C 145.713,485.772 142.046,483.772 138.5,481.5C 130.604,472.001 126.104,461.001 125,448.5C 124.333,435.833 124.333,423.167 125,410.5C 126.567,400.835 128.067,391.168 129.5,381.5C 151.679,385.863 174.012,389.363 196.5,392C 209.554,409.892 223.554,427.059 238.5,443.5C 222.303,459.275 203.97,472.109 183.5,482C 172.663,486.75 161.33,488.584 149.5,487.5 Z"/></g>
<g><path style="opacity:1" fill="#5bdafc" d="M 372.5,481.5 C 368.954,483.772 365.287,485.772 361.5,487.5C 350.454,488.526 339.787,487.026 329.5,483C 308.134,473.115 289.134,459.948 272.5,443.5C 287.446,427.059 301.446,409.892 314.5,392C 335.624,389.368 356.624,385.868 377.5,381.5C 378.772,381.57 379.938,381.903 381,382.5C 386.169,404.215 387.836,426.215 386,448.5C 384.896,461.001 380.396,472.001 372.5,481.5 Z"/></g>
<g><path style="opacity:1" fill="#c2eaf5" d="M 267.5,394.5 C 272.68,393.185 278.014,393.185 283.5,394.5C 283.376,395.107 283.043,395.44 282.5,395.5C 277.695,394.513 272.695,394.179 267.5,394.5 Z"/></g>
<g><path style="opacity:1" fill="#5ddafc" d="M 267.5,394.5 C 272.695,394.179 277.695,394.513 282.5,395.5C 273.867,406.135 264.867,416.468 255.5,426.5C 245.802,416.768 236.802,406.435 228.5,395.5C 241.483,394.501 254.483,394.168 267.5,394.5 Z"/></g>
<g><path style="opacity:0.98" fill="#5bdafc" d="M 319.5,503.5 C 305.694,507.245 291.694,509.912 277.5,511.5C 262.833,511.5 248.167,511.5 233.5,511.5C 219.306,509.912 205.306,507.245 191.5,503.5C 195.85,501.77 200.183,499.937 204.5,498C 222.765,487.237 239.765,474.737 255.5,460.5C 265.355,468.856 275.355,477.022 285.5,485C 296.12,492.476 307.453,498.643 319.5,503.5 Z"/></g>
<g><path style="opacity:1" fill="#d1ecf4" d="M 138.5,481.5 C 142.046,483.772 145.713,485.772 149.5,487.5C 149.5,487.833 149.5,488.167 149.5,488.5C 144.749,487.29 140.416,485.29 136.5,482.5C 137.167,482.167 137.833,481.833 138.5,481.5 Z"/></g>
<g><path style="opacity:0.988" fill="#ccecf4" d="M 372.5,481.5 C 373.833,481.5 375.167,481.5 376.5,481.5C 371.919,484.622 366.919,486.956 361.5,488.5C 361.5,488.167 361.5,487.833 361.5,487.5C 365.287,485.772 368.954,483.772 372.5,481.5 Z"/></g>
</svg>
