<?xml version="1.0" encoding="UTF-8"?>
<!DOCTYPE svg PUBLIC "-//W3C//DTD SVG 1.1//EN" "http://www.w3.org/Graphics/SVG/1.1/DTD/svg11.dtd">
<svg xmlns="http://www.w3.org/2000/svg" version="1.1" width="512px" height="512px" style="shape-rendering:geometricPrecision; text-rendering:geometricPrecision; image-rendering:optimizeQuality; fill-rule:evenodd; clip-rule:evenodd" xmlns:xlink="http://www.w3.org/1999/xlink">
<g><path style="opacity:0.995" fill="#0078cf" d="M 233.5,-0.5 C 248.167,-0.5 262.833,-0.5 277.5,-0.5C 377.805,11.9821 449.305,63.9821 492,155.5C 502.297,180.687 508.797,206.687 511.5,233.5C 511.5,248.167 511.5,262.833 511.5,277.5C 509.608,292.507 506.942,307.507 503.5,322.5C 491.849,307.994 477.515,296.827 460.5,289C 443.383,283.441 426.716,276.774 410.5,269C 402.899,264.786 396.399,259.286 391,252.5C 383.965,234.066 389.799,221.566 408.5,215C 423.21,212.79 435.376,217.29 445,228.5C 446.993,230.818 448.159,233.484 448.5,236.5C 465.135,226.172 481.135,214.838 496.5,202.5C 479.868,181.504 458.201,168.671 431.5,164C 413.631,160.177 395.964,160.844 378.5,166C 351.993,178.804 337.16,199.971 334,229.5C 332.478,245.125 333.811,260.458 338,275.5C 341.291,284.585 346.458,292.419 353.5,299C 359.221,303.721 365.221,308.054 371.5,312C 393.013,322.923 414.679,333.589 436.5,344C 453.899,353.71 457.399,367.21 447,384.5C 437.035,393.719 425.202,397.719 411.5,396.5C 405.313,396.828 399.313,395.995 393.5,394C 379.667,386.833 369.167,376.333 362,362.5C 345.917,371.79 330.083,381.457 314.5,391.5C 333.003,424.424 361.003,443.424 398.5,448.5C 406.316,449.492 414.316,449.826 422.5,449.5C 381.258,485.445 333.258,506.111 278.5,511.5C 263.5,511.5 248.5,511.5 233.5,511.5C 133.195,499.018 61.6947,447.018 19,355.5C 8.70332,330.313 2.20332,304.313 -0.5,277.5C -0.5,262.833 -0.5,248.167 -0.5,233.5C 11.9821,133.195 63.9821,61.6947 155.5,19C 180.687,8.70332 206.687,2.20332 233.5,-0.5 Z"/></g>
<g><path style="opacity:1" fill="#f0f1f1" d="M 503.5,322.5 C 489.396,371.732 463.396,413.399 425.5,447.5C 416.553,448.444 407.553,448.778 398.5,448.5C 361.003,443.424 333.003,424.424 314.5,391.5C 330.083,381.457 345.917,371.79 362,362.5C 369.167,376.333 379.667,386.833 393.5,394C 399.313,395.995 405.313,396.828 411.5,396.5C 425.202,397.719 437.035,393.719 447,384.5C 457.399,367.21 453.899,353.71 436.5,344C 414.679,333.589 393.013,322.923 371.5,312C 365.221,308.054 359.221,303.721 353.5,299C 346.458,292.419 341.291,284.585 338,275.5C 333.811,260.458 332.478,245.125 334,229.5C 337.16,199.971 351.993,178.804 378.5,166C 395.964,160.844 413.631,160.177 431.5,164C 458.201,168.671 479.868,181.504 496.5,202.5C 481.135,214.838 465.135,226.172 448.5,236.5C 448.159,233.484 446.993,230.818 445,228.5C 435.376,217.29 423.21,212.79 408.5,215C 389.799,221.566 383.965,234.066 391,252.5C 396.399,259.286 402.899,264.786 410.5,269C 426.716,276.774 443.383,283.441 460.5,289C 477.515,296.827 491.849,307.994 503.5,322.5 Z"/></g>
<g><path style="opacity:1" fill="#f1f1f1" d="M 300.5,220.5 C 273.833,220.5 247.167,220.5 220.5,220.5C 220.5,294.833 220.5,369.167 220.5,443.5C 201.167,443.5 181.833,443.5 162.5,443.5C 162.5,369.167 162.5,294.833 162.5,220.5C 135.833,220.5 109.167,220.5 82.5,220.5C 82.5,203.5 82.5,186.5 82.5,169.5C 155.167,169.5 227.833,169.5 300.5,169.5C 300.5,186.5 300.5,203.5 300.5,220.5 Z"/></g>
<g><path style="opacity:1" fill="#1883d2" d="M 82.5,220.5 C 109.167,220.5 135.833,220.5 162.5,220.5C 162.5,294.833 162.5,369.167 162.5,443.5C 161.501,369.669 161.167,295.669 161.5,221.5C 134.995,221.831 108.661,221.498 82.5,220.5 Z"/></g>
<g><path style="opacity:1" fill="#2188d3" d="M 300.5,220.5 C 274.339,221.498 248.005,221.831 221.5,221.5C 221.833,295.669 221.499,369.669 220.5,443.5C 220.5,369.167 220.5,294.833 220.5,220.5C 247.167,220.5 273.833,220.5 300.5,220.5 Z"/></g>
<g><path style="opacity:1" fill="#a7cbe7" d="M 425.5,447.5 C 425.027,448.906 424.027,449.573 422.5,449.5C 414.316,449.826 406.316,449.492 398.5,448.5C 407.553,448.778 416.553,448.444 425.5,447.5 Z"/></g>
</svg>
